<svg id="visual" viewBox="0 0 960 120" width="960" height="120" xmlns="http://www.w3.org/2000/svg" xmlns:xlink="http://www.w3.org/1999/xlink" version="1.1"><rect x="0" y="0" width="960" height="120" fill="#ffffff"></rect><path d="M0 107L12.3 101C24.7 95 49.3 83 74 79.5C98.7 76 123.3 81 148 87.2C172.7 93.3 197.3 100.7 221.8 98.8C246.3 97 270.7 86 295.2 84.5C319.7 83 344.3 91 369 94C393.7 97 418.3 95 443 91.8C467.7 88.7 492.3 84.3 517 84.2C541.7 84 566.3 88 591 91.8C615.7 95.7 640.3 99.3 664.8 97.7C689.3 96 713.7 89 738.2 84.2C762.7 79.3 787.3 76.7 812 80.8C836.7 85 861.3 96 886 95.3C910.7 94.7 935.3 82.3 947.7 76.2L960 70L960 121L947.7 121C935.3 121 910.7 121 886 121C861.3 121 836.7 121 812 121C787.3 121 762.7 121 738.2 121C713.7 121 689.3 121 664.8 121C640.3 121 615.7 121 591 121C566.3 121 541.7 121 517 121C492.3 121 467.7 121 443 121C418.3 121 393.7 121 369 121C344.3 121 319.7 121 295.2 121C270.7 121 246.3 121 221.8 121C197.3 121 172.7 121 148 121C123.3 121 98.7 121 74 121C49.3 121 24.7 121 12.3 121L0 121Z" fill="#212529" stroke-linecap="round" stroke-linejoin="miter"></path></svg>