<svg id="visual" viewBox="0 0 960 120" width="960" height="120" xmlns="http://www.w3.org/2000/svg" xmlns:xlink="http://www.w3.org/1999/xlink" version="1.1"><rect x="0" y="0" width="960" height="120" fill="#7bc3d9"></rect><path d="M0 94L20 95.7C40 97.3 80 100.7 120 103C160 105.3 200 106.7 240 103C280 99.3 320 90.7 360 86.7C400 82.7 440 83.3 480 86.8C520 90.3 560 96.7 600 99.3C640 102 680 101 720 99.2C760 97.3 800 94.7 840 91.5C880 88.3 920 84.7 940 82.8L960 81L960 121L940 121C920 121 880 121 840 121C800 121 760 121 720 121C680 121 640 121 600 121C560 121 520 121 480 121C440 121 400 121 360 121C320 121 280 121 240 121C200 121 160 121 120 121C80 121 40 121 20 121L0 121Z" fill="#212529" stroke-linecap="round" stroke-linejoin="miter"></path></svg>